<?xml version="1.0" encoding="UTF-8"?>
<svg width="80" height="80" viewBox="0 0 80 80" fill="none" xmlns="http://www.w3.org/2000/svg">
  <path d="M60 13.333H53.333V10C53.333 8.159 51.841 6.667 50 6.667H30C28.159 6.667 26.667 8.159 26.667 10V13.333H20C16.318 13.333 13.333 16.318 13.333 20V63.333C13.333 67.015 16.318 70 20 70H60C63.682 70 66.667 67.015 66.667 63.333V20C66.667 16.318 63.682 13.333 60 13.333ZM33.333 16.667V10H46.667V16.667H33.333ZM60 63.333H20V20H26.667V23.333C26.667 25.174 28.159 26.667 30 26.667H50C51.841 26.667 53.333 25.174 53.333 23.333V20H60V63.333Z" fill="#1241a0"/>
  <path d="M30 36.667H50V43.333H30V36.667Z" fill="#20bf55"/>
  <path d="M30 46.667H50V53.333H30V46.667Z" fill="#20bf55"/>
</svg>
