<?xml version="1.0" encoding="UTF-8"?>
<svg width="80" height="80" viewBox="0 0 80 80" fill="none" xmlns="http://www.w3.org/2000/svg">
  <path d="M65.642 25.833C64.425 20.283 59.533 16.667 54.167 16.667C50.333 16.667 46.908 18.675 45 21.675C43.092 18.675 39.667 16.667 35.833 16.667C30.467 16.667 25.575 20.283 24.358 25.833C24.192 26.45 23.75 28.75 24.558 32.258C25.617 36.925 28.3 41.108 32.292 43.958L45 53.333L57.708 43.958C61.7 41.108 64.383 36.925 65.442 32.258C66.25 28.75 65.808 26.45 65.642 25.833Z" fill="#1241a0"/>
  <path d="M35 35L40 40L45 35L50 40L55 35" stroke="white" stroke-width="2" stroke-linecap="round" stroke-linejoin="round"/>
</svg>
