<?xml version="1.0" encoding="UTF-8"?>
<svg width="80" height="80" viewBox="0 0 80 80" fill="none" xmlns="http://www.w3.org/2000/svg">
  <path d="M40 23.333C44.602 23.333 48.333 19.602 48.333 15C48.333 10.398 44.602 6.667 40 6.667C35.398 6.667 31.667 10.398 31.667 15C31.667 19.602 35.398 23.333 40 23.333Z" fill="#1241a0"/>
  <path d="M46.667 46.667C51.269 46.667 55 42.935 55 38.333C55 33.731 51.269 30 46.667 30C42.064 30 38.333 33.731 38.333 38.333C38.333 42.935 42.064 46.667 46.667 46.667Z" fill="#20bf55"/>
  <path d="M36.667 33.333C36.667 30.572 34.428 28.333 31.667 28.333C28.905 28.333 26.667 30.572 26.667 33.333C26.667 36.095 28.905 38.333 31.667 38.333C34.428 38.333 36.667 36.095 36.667 33.333Z" fill="#a1dcae"/>
  <path d="M58.333 50H55.858C54.579 50 53.34 50.4 52.316 51.141L48.333 53.968L44.35 51.141C43.326 50.4 42.087 50 40.808 50H38.333" stroke="#1241a0" stroke-width="2.5" stroke-linecap="round"/>
  <path d="M48.333 53.968V73.333" stroke="#1241a0" stroke-width="2.5" stroke-linecap="round"/>
  <path d="M33.333 41.667H30.858C29.579 41.667 28.34 42.067 27.316 42.808L23.333 45.635L19.35 42.808C18.326 42.067 17.087 41.667 15.808 41.667H13.333" stroke="#1241a0" stroke-width="2" stroke-linecap="round"/>
  <path d="M23.333 45.635V65" stroke="#1241a0" stroke-width="2" stroke-linecap="round"/>
</svg>
