<?xml version="1.0" encoding="UTF-8"?>
<svg width="80" height="80" viewBox="0 0 80 80" fill="none" xmlns="http://www.w3.org/2000/svg">
  <path d="M63.333 10H16.667C13.53 10 10.533 11.229 8.346 13.417C6.158 15.604 5 18.551 5 21.688V58.312C5 61.449 6.229 64.446 8.417 66.633C10.604 68.821 13.551 70 16.688 70H63.312C66.449 70 69.446 68.771 71.633 66.583C73.821 64.396 75 61.449 75 58.312V21.688C75 18.551 73.771 15.554 71.583 13.367C69.396 11.179 66.449 10 63.333 10Z" stroke="#1241a0" stroke-width="3" fill="none"/>
  <rect x="15" y="20" width="50" height="35" rx="2" fill="#a1dcae"/>
  <path d="M40 25V50" stroke="#1241a0" stroke-width="3"/>
  <path d="M52.5 37.5H27.5" stroke="#1241a0" stroke-width="3"/>
  <circle cx="32.5" cy="32.5" r="2.5" fill="#1241a0"/>
  <circle cx="47.5" cy="42.5" r="2.5" fill="#1241a0"/>
  <path d="M15 62.5H65" stroke="#1241a0" stroke-width="2"/>
</svg>
