<?xml version="1.0" encoding="UTF-8"?>
<svg width="80" height="80" viewBox="0 0 80 80" fill="none" xmlns="http://www.w3.org/2000/svg">
  <path d="M40 6.667C30.795 6.667 23.333 14.128 23.333 23.333C23.333 35 40 53.333 40 53.333C40 53.333 56.667 35 56.667 23.333C56.667 14.128 49.205 6.667 40 6.667ZM40 30C38.2319 30 36.5362 29.2976 35.286 28.0474C34.0357 26.7971 33.333 25.1014 33.333 23.333C33.333 21.5646 34.0357 19.8689 35.286 18.6186C36.5362 17.3683 38.2319 16.667 40 16.667C41.7681 16.667 43.4638 17.3683 44.7141 18.6186C45.9643 19.8689 46.667 21.5646 46.667 23.333C46.667 25.1014 45.9643 26.7971 44.7141 28.0474C43.4638 29.2976 41.7681 30 40 30Z" fill="#1241a0"/>
  <path d="M18.333 53.333C18.333 53.333 10 55.917 10 63.333C10 70.75 18.333 70 18.333 70H61.667C61.667 70 70 70.75 70 63.333C70 55.917 61.667 53.333 61.667 53.333" stroke="#20bf55" stroke-width="3" stroke-linecap="round"/>
</svg>
