<?xml version="1.0" encoding="UTF-8"?>
<svg width="80" height="80" viewBox="0 0 80 80" fill="none" xmlns="http://www.w3.org/2000/svg">
  <path d="M58.333 71.667C50.597 71.667 43.073 69.167 36.597 64.167C30.64 59.583 25.64 54.583 21.57 49.167C17.07 43.167 14.833 37.583 14.833 32.5C14.833 29.167 15.667 26.25 17.333 23.75C19 21.25 21.5 19.583 24.833 18.75C25.5 18.583 26.167 18.5 26.833 18.5C28.167 18.5 29.333 18.917 30.333 19.75C31.333 20.583 32.167 21.667 32.833 23L36.667 30.583C37.167 31.5 37.5 32.333 37.667 33.083C37.833 33.833 37.917 34.583 37.917 35.25C37.917 36.25 37.667 37.25 37.167 38.167C36.667 39.083 36 40 35.167 40.833L33.5 42.583C33.333 42.75 33.25 42.917 33.25 43.167C33.25 43.25 33.25 43.417 33.333 43.583C33.5 43.917 33.833 44.417 34.333 45.083C34.833 45.75 35.5 46.5 36.333 47.333C38 49 39.667 50.5 41.333 51.833C42.333 52.667 43.333 53.333 44.167 53.833C45 54.333 45.667 54.583 46.167 54.583L46.333 54.583C46.5 54.583 46.667 54.5 46.833 54.333L48.5 52.583C49.5 51.583 50.417 50.833 51.333 50.417C52.25 50 53.167 49.75 54.167 49.75C54.833 49.75 55.5 49.833 56.167 50C56.833 50.167 57.667 50.5 58.5 50.917L66.167 54.833C67.5 55.5 68.5 56.333 69.167 57.25C69.833 58.167 70.167 59.167 70.167 60.333C70.167 61.167 70.083 61.917 69.917 62.667C69.167 66 67.5 68.5 65 70.167C62.5 71.167 60 71.667 58.333 71.667Z" fill="#1241a0"/>
</svg>
