<?xml version="1.0" encoding="UTF-8"?>
<svg width="80" height="80" viewBox="0 0 80 80" fill="none" xmlns="http://www.w3.org/2000/svg">
  <path d="M50 13.333H30C28.159 13.333 26.667 14.826 26.667 16.667V33.333H16.667C14.826 33.333 13.333 34.826 13.333 36.667V56.667C13.333 58.507 14.826 60 16.667 60H36.667C38.507 60 40 58.507 40 56.667V40H50C51.841 40 53.333 38.507 53.333 36.667V16.667C53.333 14.826 51.841 13.333 50 13.333ZM33.333 53.333H20V40H33.333V53.333ZM46.667 33.333H33.333V20H46.667V33.333Z" fill="#1241a0"/>
  <path d="M53.333 50L63.333 60L70 53.333" stroke="#20bf55" stroke-width="3" stroke-linecap="round" stroke-linejoin="round"/>
  <path d="M63.333 33.333C66.095 33.333 68.333 31.095 68.333 28.333C68.333 25.572 66.095 23.333 63.333 23.333C60.572 23.333 58.333 25.572 58.333 28.333C58.333 31.095 60.572 33.333 63.333 33.333Z" fill="#20bf55"/>
</svg>
